<svg width="200" height="41" viewBox="0 0 200 41" fill="none" xmlns="http://www.w3.org/2000/svg">
<g filter="url(#filter0_d_301_3)">
<path d="M4.656 26V3.6H8.944L22.16 19.728H20.08V3.6H25.2V26H20.944L7.696 9.872H9.776V26H4.656ZM42.2438 26.256C40.7291 26.256 39.4278 25.936 38.3398 25.296C37.2518 24.656 36.4198 23.6853 35.8438 22.384C35.2678 21.0613 34.9798 19.3973 34.9798 17.392C34.9798 15.3653 35.2784 13.7013 35.8758 12.4C36.4944 11.0987 37.3478 10.128 38.4358 9.488C39.5238 8.848 40.7931 8.528 42.2438 8.528C43.8651 8.528 45.3158 8.89067 46.5958 9.616C47.8971 10.3413 48.9211 11.3653 49.6678 12.688C50.4358 14.0107 50.8198 15.5787 50.8198 17.392C50.8198 19.184 50.4358 20.7413 49.6678 22.064C48.9211 23.3867 47.8971 24.4213 46.5958 25.168C45.3158 25.8933 43.8651 26.256 42.2438 26.256ZM32.0678 26V2.256H37.0598V12.272L36.7398 17.36L36.8358 22.48V26H32.0678ZM41.3798 22.16C42.2118 22.16 42.9478 21.968 43.5878 21.584C44.2491 21.2 44.7718 20.656 45.1558 19.952C45.5611 19.2267 45.7638 18.3733 45.7638 17.392C45.7638 16.3893 45.5611 15.536 45.1558 14.832C44.7718 14.128 44.2491 13.584 43.5878 13.2C42.9478 12.816 42.2118 12.624 41.3798 12.624C40.5478 12.624 39.8011 12.816 39.1398 13.2C38.4784 13.584 37.9558 14.128 37.5718 14.832C37.1878 15.536 36.9958 16.3893 36.9958 17.392C36.9958 18.3733 37.1878 19.2267 37.5718 19.952C37.9558 20.656 38.4784 21.2 39.1398 21.584C39.8011 21.968 40.5478 22.16 41.3798 22.16Z" fill="#49A6E9"/>
<path d="M56.4335 26V3.6H66.1295C68.1348 3.6 69.8628 3.93067 71.3135 4.592C72.7642 5.232 73.8842 6.16 74.6735 7.376C75.4628 8.592 75.8575 10.0427 75.8575 11.728C75.8575 13.392 75.4628 14.832 74.6735 16.048C73.8842 17.2427 72.7642 18.16 71.3135 18.8C69.8628 19.44 68.1348 19.76 66.1295 19.76H59.3135L61.6175 17.488V26H56.4335ZM70.6735 26L65.0735 17.872H70.6095L76.2735 26H70.6735ZM61.6175 18.064L59.3135 15.632H65.8415C67.4415 15.632 68.6362 15.2907 69.4255 14.608C70.2148 13.904 70.6095 12.944 70.6095 11.728C70.6095 10.4907 70.2148 9.53067 69.4255 8.848C68.6362 8.16533 67.4415 7.824 65.8415 7.824H59.3135L61.6175 5.36V18.064ZM90.0768 26.256C88.1141 26.256 86.3861 25.872 84.8928 25.104C83.4208 24.336 82.2794 23.2907 81.4688 21.968C80.6581 20.624 80.2528 19.0987 80.2528 17.392C80.2528 15.664 80.6474 14.1387 81.4368 12.816C82.2474 11.472 83.3461 10.4267 84.7328 9.68C86.1194 8.912 87.6874 8.528 89.4368 8.528C91.1221 8.528 92.6368 8.89067 93.9808 9.616C95.3461 10.32 96.4234 11.344 97.2128 12.688C98.0021 14.0107 98.3968 15.6 98.3968 17.456C98.3968 17.648 98.3861 17.872 98.3648 18.128C98.3434 18.3627 98.3221 18.5867 98.3008 18.8H84.3168V15.888H95.6768L93.7568 16.752C93.7568 15.856 93.5754 15.0773 93.2128 14.416C92.8501 13.7547 92.3488 13.2427 91.7088 12.88C91.0688 12.496 90.3221 12.304 89.4688 12.304C88.6154 12.304 87.8581 12.496 87.1968 12.88C86.5568 13.2427 86.0554 13.7653 85.6928 14.448C85.3301 15.1093 85.1488 15.8987 85.1488 16.816V17.584C85.1488 18.5227 85.3514 19.3547 85.7568 20.08C86.1834 20.784 86.7701 21.328 87.5168 21.712C88.2848 22.0747 89.1808 22.256 90.2048 22.256C91.1221 22.256 91.9221 22.1173 92.6048 21.84C93.3088 21.5627 93.9488 21.1467 94.5248 20.592L97.1808 23.472C96.3914 24.368 95.3994 25.0613 94.2048 25.552C93.0101 26.0213 91.6341 26.256 90.0768 26.256ZM111.96 26.256C110.104 26.256 108.451 25.8827 107 25.136C105.55 24.368 104.408 23.312 103.576 21.968C102.766 20.624 102.36 19.0987 102.36 17.392C102.36 15.664 102.766 14.1387 103.576 12.816C104.408 11.472 105.55 10.4267 107 9.68C108.451 8.912 110.104 8.528 111.96 8.528C113.774 8.528 115.352 8.912 116.696 9.68C118.04 10.4267 119.032 11.504 119.672 12.912L115.8 14.992C115.352 14.1813 114.787 13.584 114.104 13.2C113.443 12.816 112.718 12.624 111.928 12.624C111.075 12.624 110.307 12.816 109.624 13.2C108.942 13.584 108.398 14.128 107.992 14.832C107.608 15.536 107.416 16.3893 107.416 17.392C107.416 18.3947 107.608 19.248 107.992 19.952C108.398 20.656 108.942 21.2 109.624 21.584C110.307 21.968 111.075 22.16 111.928 22.16C112.718 22.16 113.443 21.9787 114.104 21.616C114.787 21.232 115.352 20.624 115.8 19.792L119.672 21.904C119.032 23.2907 118.04 24.368 116.696 25.136C115.352 25.8827 113.774 26.256 111.96 26.256ZM124.373 26V8.784H129.365V26H124.373ZM126.869 6.384C125.951 6.384 125.205 6.11733 124.629 5.584C124.053 5.05067 123.765 4.38933 123.765 3.6C123.765 2.81067 124.053 2.14933 124.629 1.616C125.205 1.08267 125.951 0.815998 126.869 0.815998C127.786 0.815998 128.533 1.072 129.109 1.584C129.685 2.07467 129.973 2.71467 129.973 3.504C129.973 4.336 129.685 5.02933 129.109 5.584C128.554 6.11733 127.807 6.384 126.869 6.384ZM146.094 26.256C144.643 26.256 143.374 25.936 142.286 25.296C141.198 24.656 140.344 23.6853 139.726 22.384C139.128 21.0613 138.83 19.3973 138.83 17.392C138.83 15.3653 139.118 13.7013 139.694 12.4C140.27 11.0987 141.102 10.128 142.19 9.488C143.278 8.848 144.579 8.528 146.094 8.528C147.715 8.528 149.166 8.90133 150.446 9.648C151.747 10.3733 152.771 11.3973 153.518 12.72C154.286 14.0427 154.67 15.6 154.67 17.392C154.67 19.2053 154.286 20.7733 153.518 22.096C152.771 23.4187 151.747 24.4427 150.446 25.168C149.166 25.8933 147.715 26.256 146.094 26.256ZM135.918 32.208V8.784H140.686V12.304L140.59 17.424L140.91 22.512V32.208H135.918ZM145.23 22.16C146.062 22.16 146.798 21.968 147.438 21.584C148.099 21.2 148.622 20.656 149.006 19.952C149.411 19.2267 149.614 18.3733 149.614 17.392C149.614 16.3893 149.411 15.536 149.006 14.832C148.622 14.128 148.099 13.584 147.438 13.2C146.798 12.816 146.062 12.624 145.23 12.624C144.398 12.624 143.651 12.816 142.99 13.2C142.328 13.584 141.806 14.128 141.422 14.832C141.038 15.536 140.846 16.3893 140.846 17.392C140.846 18.3733 141.038 19.2267 141.422 19.952C141.806 20.656 142.328 21.2 142.99 21.584C143.651 21.968 144.398 22.16 145.23 22.16ZM168.476 26.256C166.513 26.256 164.785 25.872 163.292 25.104C161.82 24.336 160.678 23.2907 159.868 21.968C159.057 20.624 158.652 19.0987 158.652 17.392C158.652 15.664 159.046 14.1387 159.836 12.816C160.646 11.472 161.745 10.4267 163.132 9.68C164.518 8.912 166.086 8.528 167.836 8.528C169.521 8.528 171.036 8.89067 172.38 9.616C173.745 10.32 174.822 11.344 175.612 12.688C176.401 14.0107 176.796 15.6 176.796 17.456C176.796 17.648 176.785 17.872 176.764 18.128C176.742 18.3627 176.721 18.5867 176.7 18.8H162.716V15.888H174.076L172.156 16.752C172.156 15.856 171.974 15.0773 171.612 14.416C171.249 13.7547 170.748 13.2427 170.108 12.88C169.468 12.496 168.721 12.304 167.868 12.304C167.014 12.304 166.257 12.496 165.596 12.88C164.956 13.2427 164.454 13.7653 164.092 14.448C163.729 15.1093 163.548 15.8987 163.548 16.816V17.584C163.548 18.5227 163.75 19.3547 164.156 20.08C164.582 20.784 165.169 21.328 165.916 21.712C166.684 22.0747 167.58 22.256 168.604 22.256C169.521 22.256 170.321 22.1173 171.004 21.84C171.708 21.5627 172.348 21.1467 172.924 20.592L175.58 23.472C174.79 24.368 173.798 25.0613 172.604 25.552C171.409 26.0213 170.033 26.256 168.476 26.256ZM187.831 26.256C186.359 26.256 184.94 26.0853 183.575 25.744C182.231 25.3813 181.164 24.9333 180.375 24.4L182.039 20.816C182.828 21.3067 183.756 21.712 184.823 22.032C185.911 22.3307 186.978 22.48 188.023 22.48C189.175 22.48 189.986 22.3413 190.455 22.064C190.946 21.7867 191.191 21.4027 191.191 20.912C191.191 20.5067 190.999 20.208 190.615 20.016C190.252 19.8027 189.762 19.6427 189.143 19.536C188.524 19.4293 187.842 19.3227 187.095 19.216C186.37 19.1093 185.634 18.9707 184.887 18.8C184.14 18.608 183.458 18.3307 182.839 17.968C182.22 17.6053 181.719 17.1147 181.335 16.496C180.972 15.8773 180.791 15.0773 180.791 14.096C180.791 13.008 181.1 12.048 181.719 11.216C182.359 10.384 183.276 9.73333 184.471 9.264C185.666 8.77333 187.095 8.528 188.759 8.528C189.932 8.528 191.127 8.656 192.343 8.912C193.559 9.168 194.572 9.54133 195.383 10.032L193.719 13.584C192.887 13.0933 192.044 12.7627 191.191 12.592C190.359 12.4 189.548 12.304 188.759 12.304C187.65 12.304 186.839 12.4533 186.327 12.752C185.815 13.0507 185.559 13.4347 185.559 13.904C185.559 14.3307 185.74 14.6507 186.103 14.864C186.487 15.0773 186.988 15.248 187.607 15.376C188.226 15.504 188.898 15.6213 189.623 15.728C190.37 15.8133 191.116 15.952 191.863 16.144C192.61 16.336 193.282 16.6133 193.879 16.976C194.498 17.3173 194.999 17.7973 195.383 18.416C195.767 19.0133 195.959 19.8027 195.959 20.784C195.959 21.8507 195.639 22.8 194.999 23.632C194.359 24.4427 193.431 25.0827 192.215 25.552C191.02 26.0213 189.559 26.256 187.831 26.256Z" fill="#102A42"/>
</g>
<defs>
<filter id="filter0_d_301_3" x="0.656006" y="0.81601" width="199.303" height="39.392" filterUnits="userSpaceOnUse" color-interpolation-filters="sRGB">
<feFlood flood-opacity="0" result="BackgroundImageFix"/>
<feColorMatrix in="SourceAlpha" type="matrix" values="0 0 0 0 0 0 0 0 0 0 0 0 0 0 0 0 0 0 127 0" result="hardAlpha"/>
<feOffset dy="4"/>
<feGaussianBlur stdDeviation="2"/>
<feComposite in2="hardAlpha" operator="out"/>
<feColorMatrix type="matrix" values="0 0 0 0 0 0 0 0 0 0 0 0 0 0 0 0 0 0 0.25 0"/>
<feBlend mode="normal" in2="BackgroundImageFix" result="effect1_dropShadow_301_3"/>
<feBlend mode="normal" in="SourceGraphic" in2="effect1_dropShadow_301_3" result="shape"/>
</filter>
</defs>
</svg>
